<svg id="Layer_1" data-name="Layer 1" xmlns="http://www.w3.org/2000/svg" xmlns:xlink="http://www.w3.org/1999/xlink" viewBox="0 0 8.81 13.25"><defs><style>.cls-1{fill:#fff;}.cls-2{fill:url(#linear-gradient);}.cls-3{fill:url(#linear-gradient-2);}.cls-4{fill:url(#linear-gradient-3);}</style><linearGradient id="linear-gradient" x1="3.29" y1="2.8" x2="7.28" y2="2.8" gradientUnits="userSpaceOnUse"><stop offset="0" stop-color="#05ab9e"/><stop offset="0.26" stop-color="#0e9ca0"/><stop offset="0.75" stop-color="#2673a5"/><stop offset="1" stop-color="#335da8"/></linearGradient><linearGradient id="linear-gradient-2" x1="-135.12" y1="76.23" x2="-126.88" y2="76.23" gradientTransform="matrix(0.59, -0.46, 0.45, 0.86, 48.24, -124.26)" xlink:href="#linear-gradient"/><linearGradient id="linear-gradient-3" x1="-128.03" y1="78.77" x2="-127.14" y2="78.77" gradientTransform="matrix(0.59, -0.46, 0.45, 0.86, 48.24, -124.26)" xlink:href="#linear-gradient"/></defs><path class="cls-1" d="M8.8,12.26v-.65a2.9,2.9,0,0,1-1,.65,3.82,3.82,0,0,1-1.35.23,3.51,3.51,0,0,1-2.14-.65,1.88,1.88,0,0,1-.86-1.56V5.45a1.91,1.91,0,0,1,.86-1.56,3.38,3.38,0,0,1,1-.48,4.36,4.36,0,0,1,1.17-.15,3.27,3.27,0,0,1,2.39.87V3.46h.6v2H8.8a1.51,1.51,0,0,0-.71-1.24,2.69,2.69,0,0,0-1.68-.52,1.87,1.87,0,0,0-.59.09A1.38,1.38,0,0,0,5.35,4,1.06,1.06,0,0,0,5,4.36a.79.79,0,0,0-.12.42v6.16a.85.85,0,0,0,.12.43,1.17,1.17,0,0,0,.32.35,1.6,1.6,0,0,0,.47.24,2.21,2.21,0,0,0,.59.08,3.28,3.28,0,0,0,.91-.12,2.46,2.46,0,0,0,.77-.4,1.5,1.5,0,0,0,.71-1.24h.6v2Z" transform="translate(-0.6 -0.21)"/><path class="cls-1" d="M7.19,4.88v6.38a1.87,1.87,0,0,1-.89,1.55,3.47,3.47,0,0,1-2.1.65A4,4,0,0,1,3,13.3a3.22,3.22,0,0,1-1-.49,1.89,1.89,0,0,1-.85-1.55V4.88H.6V4.44H3.3v.44H2.7v7a.82.82,0,0,0,.12.43,1.32,1.32,0,0,0,.32.35,1.6,1.6,0,0,0,.47.24A1.87,1.87,0,0,0,4.2,13a1.79,1.79,0,0,0,.57-.09,1.54,1.54,0,0,0,.48-.24,1.32,1.32,0,0,0,.32-.35.75.75,0,0,0,.13-.43v-7H5.1V4.44H7.79v.44Z" transform="translate(-0.6 -0.21)"/><path class="cls-2" d="M7.28,3a4.57,4.57,0,0,0-3.66,1L3.29,2.47l2,.33L6.8,1.55Z" transform="translate(-0.6 -0.21)"/><path class="cls-3" d="M7.81.49l-.1,0h0l-2.59.68a.36.36,0,0,1-.24.2c-.16,0-.32,0-.34-.12s.08-.22.24-.26a.34.34,0,0,1,.31.05L7.7.38,4.58.21,1.75,2l3.45.59L7.71.52,8,1.7h.1Z" transform="translate(-0.6 -0.21)"/><path class="cls-4" d="M8.63,2.81l-.36-.73a.26.26,0,0,0,0-.22.2.2,0,0,0-.23-.17c-.1,0-.15.14-.12.27a.25.25,0,0,0,.14.16l0,.82Z" transform="translate(-0.6 -0.21)"/></svg>