<svg id="Layer_1" data-name="Layer 1" xmlns="http://www.w3.org/2000/svg" viewBox="0 0 9.1 13.7"><defs><style>.cls-1{fill:#fff;}</style></defs><path class="cls-1" d="M8.93,13v-.67a3,3,0,0,1-1.08.68,4.05,4.05,0,0,1-1.39.23,3.63,3.63,0,0,1-2.22-.67A1.93,1.93,0,0,1,3.36,11V6A2,2,0,0,1,4.24,4.4a3.18,3.18,0,0,1,1-.5,4.22,4.22,0,0,1,1.21-.16,3.38,3.38,0,0,1,2.47.9V4h.62V6H8.93a1.58,1.58,0,0,0-.74-1.29,2.76,2.76,0,0,0-1.73-.53,2,2,0,0,0-.61.09,1.49,1.49,0,0,0-.49.24A1.21,1.21,0,0,0,5,4.87a.89.89,0,0,0-.12.45v6.36a.86.86,0,0,0,.12.44,1.13,1.13,0,0,0,.33.36,1.51,1.51,0,0,0,.49.25,2,2,0,0,0,.61.09,3.14,3.14,0,0,0,.94-.13,2.48,2.48,0,0,0,.79-.41A1.55,1.55,0,0,0,8.93,11h.62v2Z" transform="translate(-0.45 -0.59)"/><path class="cls-1" d="M7.27,5.41V12a1.92,1.92,0,0,1-.93,1.61,3.6,3.6,0,0,1-2.17.66A4.2,4.2,0,0,1,3,14.12a3.34,3.34,0,0,1-1-.5A2,2,0,0,1,1.08,12V5.41H.45V5H3.24v.45H2.62v7.28a.8.8,0,0,0,.13.44,1.13,1.13,0,0,0,.33.36,1.74,1.74,0,0,0,.49.25,1.93,1.93,0,0,0,.6.09,2,2,0,0,0,.6-.09,1.74,1.74,0,0,0,.49-.25,1.13,1.13,0,0,0,.33-.36.8.8,0,0,0,.13-.44V5.41H5.1V5H7.89v.45Z" transform="translate(-0.45 -0.59)"/><path class="cls-1" d="M7.36,3.51a4.72,4.72,0,0,0-3.79,1L3.23,2.93l2,.34L6.86,2Z" transform="translate(-0.45 -0.59)"/><path class="cls-1" d="M7.9.88l-.1,0h0l-2.67.7a.35.35,0,0,1-.26.2c-.16.05-.32,0-.35-.11s.09-.23.25-.28a.33.33,0,0,1,.32.06L7.8.77,4.57.59,1.64,2.43,5.21,3,7.8.91l.32,1.22h.05l.05,0Z" transform="translate(-0.45 -0.59)"/><path class="cls-1" d="M8.75,3.27l-.37-.75a.24.24,0,0,0,0-.22.21.21,0,0,0-.24-.18c-.1,0-.15.15-.12.27a.3.3,0,0,0,.14.18l0,.84Z" transform="translate(-0.45 -0.59)"/></svg>