<?xml version="1.0" encoding="utf-8"?>
<!-- Generator: Adobe Illustrator 24.1.1, SVG Export Plug-In . SVG Version: 6.00 Build 0)  -->
<svg version="1.1" id="Layer_1" xmlns="http://www.w3.org/2000/svg" xmlns:xlink="http://www.w3.org/1999/xlink" x="0px" y="0px"
	 viewBox="0 0 100 50.78" style="enable-background:new 0 0 100 50.78;" xml:space="preserve">
<style type="text/css">
	.st0{fill:#FFFFFF;}
	.st1{fill:url(#SVGID_1_);}
	.st2{fill:url(#SVGID_2_);}
	.st3{fill:url(#SVGID_3_);}
	.st4{fill:url(#SVGID_4_);}
	.st5{fill:url(#SVGID_5_);}
	.st6{fill:url(#SVGID_6_);}
	.st7{fill:url(#SVGID_7_);}
	.st8{fill:url(#SVGID_8_);}
	.st9{fill:url(#SVGID_9_);}
	.st10{fill:url(#SVGID_10_);}
	.st11{fill:url(#SVGID_11_);}
</style>
<g>
	<g>
		<path class="st0" d="M26.4,45.59v-2.42c-0.94,1.08-2.02,1.89-3.25,2.44c-1.23,0.55-2.63,0.82-4.18,0.82c-2.61,0-4.82-0.8-6.63-2.4
			c-1.77-1.57-2.66-3.5-2.66-5.8V20.26c0-2.27,0.89-4.2,2.66-5.8c0.91-0.81,1.92-1.4,3.03-1.79c1.11-0.39,2.31-0.58,3.61-0.58
			c3.11,0,5.59,1.09,7.43,3.26v-2.49h1.86v7.4H26.4c0-1.8-0.74-3.34-2.23-4.63c-1.43-1.28-3.16-1.92-5.21-1.92
			c-0.65,0-1.25,0.11-1.82,0.32c-0.56,0.21-1.05,0.5-1.47,0.87c-0.42,0.37-0.75,0.8-0.99,1.29c-0.25,0.49-0.37,1.02-0.37,1.59v22.92
			c0,0.56,0.12,1.09,0.37,1.59c0.24,0.49,0.58,0.93,0.99,1.3c0.42,0.37,0.91,0.67,1.47,0.89c0.56,0.22,1.17,0.33,1.82,0.33
			c1.02,0,1.97-0.16,2.84-0.48c0.87-0.32,1.66-0.81,2.37-1.48c1.48-1.26,2.23-2.79,2.23-4.59h1.86v7.35H26.4z"/>
	</g>
	<g>
		<path class="st0" d="M21.41,18.13v23.74c0,2.3-0.93,4.23-2.79,5.8c-1.82,1.6-3.98,2.4-6.5,2.4c-1.3,0-2.5-0.2-3.62-0.59
			c-1.12-0.4-2.13-1-3.04-1.8c-1.76-1.57-2.64-3.5-2.64-5.8V18.13H0.94v-1.64h8.39v1.64H7.47v26.18c0,0.56,0.12,1.09,0.37,1.59
			c0.24,0.49,0.58,0.93,0.99,1.3c0.42,0.37,0.91,0.67,1.47,0.89c0.56,0.22,1.17,0.33,1.82,0.33c0.62,0,1.21-0.11,1.78-0.33
			c0.57-0.22,1.06-0.52,1.48-0.89c0.42-0.37,0.75-0.81,1-1.3c0.25-0.49,0.38-1.02,0.38-1.59V18.13H14.9v-1.64h8.36v1.64H21.41z"/>
	</g>
</g>
<g>
	<linearGradient id="SVGID_1_" gradientUnits="userSpaceOnUse" x1="34.0316" y1="29.7811" x2="43.7927" y2="29.7811">
		<stop  offset="0" style="stop-color:#05AB9E"/>
		<stop  offset="0.1477" style="stop-color:#06A4A3"/>
		<stop  offset="0.4339" style="stop-color:#1191AB"/>
		<stop  offset="0.8265" style="stop-color:#2A6FAC"/>
		<stop  offset="1" style="stop-color:#335DA8"/>
	</linearGradient>
	<path class="st1" d="M38.28,18.84c0.26,0,0.39,0.29,0.39,0.88c0,0.12-0.02,0.26-0.06,0.42c-0.11,0.18-0.28,0.31-0.5,0.39
		c-0.22,0.08-0.38,0.18-0.47,0.3c-0.12,0.22-0.18,0.69-0.18,1.4v12.23c0,0.99,0.19,1.83,0.58,2.5c0.39,0.68,0.83,1.02,1.33,1.02
		c0.93,0,1.57-0.69,1.92-2.06c0.24-0.95,0.36-2.48,0.36-4.58v-9.2c0-0.69-0.11-1.16-0.33-1.43l-0.63-0.33
		c-0.22-0.1-0.33-0.33-0.33-0.7c0-0.2,0.04-0.39,0.12-0.58c0.08-0.18,0.17-0.27,0.27-0.27h2.57c0.31,0,0.47,0.3,0.47,0.91
		c0,0.28-0.11,0.52-0.33,0.7l-0.53,0.33c-0.25,0.32-0.38,1.02-0.38,2.09v7.74c0,2.08-0.04,3.52-0.11,4.31
		c-0.15,1.86-0.55,3.29-1.19,4.3c-0.65,1-1.44,1.5-2.4,1.5c-1.26,0-2.22-0.75-2.87-2.25c-0.6-1.4-0.9-3.41-0.9-6.04v-10.9
		c0-0.53-0.18-0.88-0.54-1.06c-0.35-0.12-0.53-0.37-0.53-0.76c0-0.59,0.13-0.88,0.38-0.88H38.28z"/>
	<linearGradient id="SVGID_2_" gradientUnits="userSpaceOnUse" x1="44.5585" y1="32.7709" x2="52.2022" y2="32.7709">
		<stop  offset="0" style="stop-color:#05AB9E"/>
		<stop  offset="0.1477" style="stop-color:#06A4A3"/>
		<stop  offset="0.4339" style="stop-color:#1191AB"/>
		<stop  offset="0.8265" style="stop-color:#2A6FAC"/>
		<stop  offset="1" style="stop-color:#335DA8"/>
	</linearGradient>
	<path class="st2" d="M47.29,27.58l0.01,0.09l0.05,0.06l0.04-0.03c0.63-1.44,1.3-2.16,2.01-2.16c0.76,0,1.3,0.59,1.61,1.76
		c0.21,0.83,0.32,2.1,0.32,3.82l0.03,2.64l0.03,2.61v0.88c0,0.24,0,0.48,0,0.7c-0.02,0.16-0.03,0.27-0.03,0.33
		c0.04,0.2,0.2,0.36,0.5,0.49c0.23,0.06,0.35,0.36,0.35,0.91c0,0.12-0.05,0.25-0.14,0.38c-0.1,0.13-0.17,0.2-0.23,0.2h-2.78
		c-0.29,0-0.44-0.32-0.44-0.97c0-0.22,0.14-0.39,0.42-0.52c0.28-0.06,0.42-0.29,0.42-0.7l-0.03-7.13c0-0.91-0.05-1.57-0.15-1.97
		c-0.14-0.59-0.42-0.88-0.83-0.88c-0.45,0-0.77,0.32-0.96,0.97c-0.13,0.53-0.2,1.26-0.2,2.22v6.74c0,0.43,0.13,0.67,0.4,0.74
		c0.27,0.07,0.4,0.36,0.4,0.87c0,0.42-0.14,0.64-0.42,0.64h-2.66l-0.23-0.12l-0.03-0.12c-0.09-0.08-0.14-0.24-0.15-0.49
		c0-0.38,0.09-0.63,0.27-0.73c0.26-0.08,0.41-0.15,0.44-0.21l0.04-0.36v-8.77c0-0.22-0.13-0.46-0.39-0.7
		c-0.26-0.24-0.4-0.47-0.41-0.67c0-0.26,0.11-0.46,0.33-0.58c0.91-0.75,1.6-1.49,2.07-2.22l0.12-0.03c0.16,0.12,0.24,0.48,0.24,1.06
		l-0.01,0.58L47.29,27.58z"/>
	<linearGradient id="SVGID_3_" gradientUnits="userSpaceOnUse" x1="52.6677" y1="29.3865" x2="56.3168" y2="29.3865">
		<stop  offset="0" style="stop-color:#05AB9E"/>
		<stop  offset="0.1477" style="stop-color:#06A4A3"/>
		<stop  offset="0.4339" style="stop-color:#1191AB"/>
		<stop  offset="0.8265" style="stop-color:#2A6FAC"/>
		<stop  offset="1" style="stop-color:#335DA8"/>
	</linearGradient>
	<path class="st3" d="M56.32,39.57c0,0.24-0.1,0.47-0.3,0.67l-0.11,0.03h-2.84c-0.1,0-0.19-0.07-0.27-0.21
		c-0.06-0.14-0.1-0.31-0.12-0.52c0-0.42,0.13-0.67,0.38-0.73c0.26-0.06,0.42-0.2,0.49-0.42v-8.89c0-0.18-0.12-0.41-0.35-0.7
		l-0.47-0.52l-0.08-0.24l0.05-0.3c0.3-0.26,0.62-0.55,0.96-0.85c0.34-0.3,0.71-0.65,1.1-1.03c0.24-0.3,0.41-0.48,0.5-0.52
		c0.07,0,0.15,0.06,0.23,0.18c0.05,0.55,0.08,1.51,0.08,2.88l-0.05,4.01l-0.04,4.01c0,0.38,0,0.74,0,1.06c0,0.32,0.01,0.59,0.03,0.8
		c0.02,0.21,0.15,0.38,0.39,0.5c0.24,0.08,0.38,0.3,0.42,0.67V39.57z M54.48,18.5c0.34,0,0.6,0.25,0.79,0.74
		c0.19,0.5,0.28,1.11,0.28,1.84c0,0.59-0.11,1.11-0.32,1.56c-0.22,0.46-0.47,0.68-0.76,0.68c-0.32,0-0.58-0.24-0.77-0.73
		c-0.19-0.49-0.29-1.05-0.29-1.7c0-0.67,0.1-1.23,0.29-1.7C53.91,18.74,54.16,18.5,54.48,18.5z"/>
	<linearGradient id="SVGID_4_" gradientUnits="userSpaceOnUse" x1="56.4516" y1="33.302" x2="64.2155" y2="33.302">
		<stop  offset="0" style="stop-color:#05AB9E"/>
		<stop  offset="0.1477" style="stop-color:#06A4A3"/>
		<stop  offset="0.4339" style="stop-color:#1191AB"/>
		<stop  offset="0.8265" style="stop-color:#2A6FAC"/>
		<stop  offset="1" style="stop-color:#335DA8"/>
	</linearGradient>
	<path class="st4" d="M59.98,25.97l0.21,0.18l0.11,0.52c0,0.36-0.12,0.61-0.36,0.73c-0.26,0.08-0.42,0.26-0.47,0.55
		c0,0.28,0.23,1.51,0.68,3.67c0.42,2.02,0.68,3.1,0.78,3.22l0.11-0.15c0.71-3.24,1.07-5.39,1.07-6.47c0-0.3-0.05-0.53-0.15-0.67
		l-0.36-0.21c-0.13-0.06-0.22-0.2-0.27-0.42v-0.3c0-0.16,0.05-0.34,0.15-0.55l0.23-0.09h2.19c0.22,0,0.33,0.23,0.33,0.7
		c0,0.32-0.07,0.55-0.21,0.67l-0.42,0.27c-0.18,0.18-0.34,0.59-0.47,1.21L60.9,40c-0.08,0.42-0.21,0.64-0.38,0.64
		c-0.2,0-0.36-0.24-0.48-0.73l-2.52-11.17c-0.16-0.73-0.36-1.14-0.61-1.24c-0.25-0.1-0.4-0.36-0.46-0.79
		c0.05-0.49,0.18-0.73,0.39-0.73H59.98z"/>
	<linearGradient id="SVGID_5_" gradientUnits="userSpaceOnUse" x1="69.6668" y1="29.5534" x2="78.8123" y2="29.5534">
		<stop  offset="0" style="stop-color:#05AB9E"/>
		<stop  offset="0.1477" style="stop-color:#06A4A3"/>
		<stop  offset="0.4339" style="stop-color:#1191AB"/>
		<stop  offset="0.8265" style="stop-color:#2A6FAC"/>
		<stop  offset="1" style="stop-color:#335DA8"/>
	</linearGradient>
	<path class="st5" d="M78.42,26.06l-0.01,0.09c-0.1,0.28-0.22,0.45-0.36,0.49c-0.11,0-0.23-0.12-0.35-0.36l-0.26-1.4
		c-0.2-1.11-0.53-2.06-1-2.85c-0.47-0.79-0.97-1.18-1.51-1.18c-0.94,0-1.66,0.96-2.15,2.88c-0.38,1.54-0.57,3.35-0.57,5.43
		c0,2.23,0.21,4.13,0.63,5.71c0.53,1.94,1.31,2.91,2.33,2.91c1.19,0,2.04-1.31,2.54-3.92l0.26-1.64c0.09-0.69,0.24-1.03,0.44-1.03
		c0.27,0,0.41,0.37,0.41,1.12c0,2.37-0.42,4.35-1.25,5.95c-0.84,1.6-1.84,2.4-3.01,2.4c-1.56,0-2.78-1.06-3.65-3.19
		c-0.82-2.02-1.23-4.63-1.23-7.83c0-3.14,0.45-5.76,1.34-7.86c0.93-2.23,2.16-3.34,3.69-3.34c0.81,0,1.53,0.35,2.16,1.06
		c0.09,0.1,0.21,0.22,0.36,0.36c0.09,0.08,0.15,0.13,0.18,0.15c0.12,0,0.21-0.23,0.27-0.68c0.06-0.46,0.19-0.68,0.38-0.68
		c0.08,0,0.16,0.08,0.24,0.23c0.08,0.15,0.13,0.34,0.14,0.56V26.06z"/>
	<linearGradient id="SVGID_6_" gradientUnits="userSpaceOnUse" x1="79.6533" y1="29.3713" x2="83.3024" y2="29.3713">
		<stop  offset="0" style="stop-color:#05AB9E"/>
		<stop  offset="0.1477" style="stop-color:#06A4A3"/>
		<stop  offset="0.4339" style="stop-color:#1191AB"/>
		<stop  offset="0.8265" style="stop-color:#2A6FAC"/>
		<stop  offset="1" style="stop-color:#335DA8"/>
	</linearGradient>
	<path class="st6" d="M82.46,38.11c0,0.3,0.14,0.51,0.42,0.62c0.28,0.11,0.42,0.37,0.42,0.77c0,0.51-0.16,0.76-0.47,0.76h-2.76
		l-0.06-0.03h-0.08l-0.17-0.33c-0.06-0.1-0.09-0.25-0.09-0.46c0-0.34,0.1-0.58,0.3-0.7c0.27-0.06,0.42-0.13,0.45-0.21l0.06-0.21
		l0.02-0.18v-0.18V22.54v-0.15c-0.06-0.18-0.2-0.37-0.41-0.56c-0.22-0.19-0.36-0.4-0.43-0.62l-0.01-0.21
		c0.01-0.1,0.08-0.24,0.2-0.42c0.53-0.42,1.31-1.12,2.34-2.09h0.09l0.09,0.03l0.09,0.21l0.01,0.46L82.46,38.11z"/>
	<linearGradient id="SVGID_7_" gradientUnits="userSpaceOnUse" x1="83.5875" y1="33.3931" x2="91.2463" y2="33.3931">
		<stop  offset="0" style="stop-color:#05AB9E"/>
		<stop  offset="0.1477" style="stop-color:#06A4A3"/>
		<stop  offset="0.4339" style="stop-color:#1191AB"/>
		<stop  offset="0.8265" style="stop-color:#2A6FAC"/>
		<stop  offset="1" style="stop-color:#335DA8"/>
	</linearGradient>
	<path class="st7" d="M86.1,25.94l0.09,0.03l0.11,0.09c0.03,0.08,0.05,0.24,0.08,0.49v9.74c0,1.32,0.28,1.97,0.84,1.97
		c0.3,0,0.59-0.19,0.86-0.56c0.28-0.37,0.41-0.88,0.41-1.5v-8.1c0-0.34-0.14-0.56-0.43-0.65c-0.29-0.09-0.43-0.37-0.43-0.83
		c0-0.44,0.15-0.67,0.44-0.67h2.15c0.14,0,0.21,0.2,0.21,0.61v2.94l-0.01,2.97v1.61c0,2.08,0.01,3.19,0.05,3.31
		c0.03,0.12,0.15,0.29,0.36,0.52c0.21,0.18,0.35,0.37,0.42,0.58l0.01,0.15l-0.11,0.36c-0.44,0.28-1.16,0.83-2.15,1.64l-0.3,0.21
		c-0.17-0.06-0.26-0.39-0.26-1l0.03-0.88l-0.12-0.12l-0.26,0.46l-0.29,0.49c-0.56,0.61-1.09,0.91-1.59,0.91
		c-0.71,0-1.21-0.52-1.5-1.55c-0.21-0.77-0.32-1.94-0.32-3.52v-7.68c0-0.22-0.14-0.39-0.41-0.5c-0.27-0.11-0.41-0.37-0.41-0.77
		c0-0.49,0.12-0.73,0.35-0.73H86.1z"/>
	<linearGradient id="SVGID_8_" gradientUnits="userSpaceOnUse" x1="91.7716" y1="29.6141" x2="99.04" y2="29.6141">
		<stop  offset="0" style="stop-color:#05AB9E"/>
		<stop  offset="0.1477" style="stop-color:#06A4A3"/>
		<stop  offset="0.4339" style="stop-color:#1191AB"/>
		<stop  offset="0.8265" style="stop-color:#2A6FAC"/>
		<stop  offset="1" style="stop-color:#335DA8"/>
	</linearGradient>
	<path class="st8" d="M94.61,27.09c0.53-1.01,1.11-1.52,1.73-1.52c0.83,0,1.51,0.8,2.03,2.4c0.45,1.4,0.68,2.99,0.68,4.8
		c0,2.08-0.28,3.88-0.84,5.37c-0.61,1.66-1.41,2.49-2.39,2.49c-0.35,0-0.71-0.14-1.07-0.42c-0.14-0.1-0.3-0.24-0.48-0.42
		c-0.08-0.08-0.24-0.26-0.47-0.55l-0.17-0.15c-0.02,0.02-0.04,0.04-0.05,0.06c-0.09,0.14-0.2,0.35-0.32,0.64
		c-0.19,0.45-0.36,0.67-0.5,0.67c-0.06,0-0.11-0.07-0.15-0.21c-0.07-0.24-0.11-2.45-0.11-6.62l0.01-5.62l0.03-5.59V22.3l-0.01-0.09
		c-0.03-0.06-0.18-0.2-0.45-0.42c-0.2-0.14-0.31-0.32-0.33-0.55v-0.15c0-0.1,0.03-0.2,0.09-0.3l1.28-1.15l1.22-1.03l0.08,0.03
		l0.09,0.24v8.01C94.52,26.98,94.55,27.05,94.61,27.09z M95.6,38.93c0.81,0,1.22-1.75,1.22-5.25c0-1.38-0.07-2.53-0.2-3.46
		c-0.21-1.52-0.56-2.28-1.04-2.28c-0.76,0-1.14,1.3-1.14,3.89v1.85C94.44,37.18,94.83,38.93,95.6,38.93z"/>
</g>
<g>
	<g>
		<linearGradient id="SVGID_9_" gradientUnits="userSpaceOnUse" x1="9.2927" y1="10.4039" x2="21.6735" y2="10.4039">
			<stop  offset="0" style="stop-color:#05AB9E"/>
			<stop  offset="0.1477" style="stop-color:#06A4A3"/>
			<stop  offset="0.4339" style="stop-color:#1191AB"/>
			<stop  offset="0.8265" style="stop-color:#2A6FAC"/>
			<stop  offset="1" style="stop-color:#335DA8"/>
		</linearGradient>
		<path class="st9" d="M21.67,11.26c0,0-5.89-1.62-11.35,3.79L9.29,9.17l6.12,1.23l4.78-4.65L21.67,11.26z"/>
		
			<linearGradient id="SVGID_10_" gradientUnits="userSpaceOnUse" x1="-129.7513" y1="61.4588" x2="-103.6173" y2="61.4588" gradientTransform="matrix(0.5904 -0.461 0.4479 0.8608 56.2181 -100.2649)">
			<stop  offset="0" style="stop-color:#05AB9E"/>
			<stop  offset="0.1477" style="stop-color:#06A4A3"/>
			<stop  offset="0.4339" style="stop-color:#1191AB"/>
			<stop  offset="0.8265" style="stop-color:#2A6FAC"/>
			<stop  offset="1" style="stop-color:#335DA8"/>
		</linearGradient>
		<path class="st10" d="M23.31,1.81L23.02,1.9l0.02-0.02L15.01,4.4c-0.07,0.31-0.36,0.6-0.75,0.72c-0.5,0.16-0.98-0.03-1.06-0.41
			c-0.08-0.39,0.26-0.83,0.76-0.99c0.4-0.12,0.77-0.03,0.96,0.2l8.08-2.53L13.3,0.74L4.5,7.38l10.73,2.2L23,1.91l0.96,4.39
			l0.17-0.05l0.14-0.04L23.31,1.81z"/>
		
			<linearGradient id="SVGID_11_" gradientUnits="userSpaceOnUse" x1="-108.1089" y1="69.558" x2="-104.9043" y2="69.558" gradientTransform="matrix(0.5904 -0.461 0.4479 0.8608 56.2181 -100.2649)">
			<stop  offset="0" style="stop-color:#05AB9E"/>
			<stop  offset="0.1477" style="stop-color:#06A4A3"/>
			<stop  offset="0.4339" style="stop-color:#1191AB"/>
			<stop  offset="0.8265" style="stop-color:#2A6FAC"/>
			<stop  offset="1" style="stop-color:#335DA8"/>
		</linearGradient>
		<path class="st11" d="M25.86,10.41L24.73,7.7c0.13-0.19,0.18-0.49,0.11-0.79c-0.1-0.46-0.42-0.75-0.72-0.66
			c-0.3,0.09-0.46,0.54-0.36,0.99c0.07,0.3,0.23,0.53,0.42,0.62l0.12,3.03L25.86,10.41z"/>
	</g>
</g>
</svg>
